<svg xmlns="http://www.w3.org/2000/svg" viewBox="0 0 64 64" role="img" aria-label="LX Sync Server">
  <rect width="64" height="64" rx="14" fill="#126d6b"/>
  <path d="M24 43.5a6.5 6.5 0 1 1-3-5.47V18.5c0-1.3.84-2.45 2.08-2.85l21-6.75A2.25 2.25 0 0 1 47 11.05v25.7a6.5 6.5 0 1 1-3-5.47V18.12l-17 5.46V43.5h-3Z" fill="#fff"/>
  <path d="M43.2 48.8a17.8 17.8 0 0 1-24.9-.7l-3.1 3.1a1.4 1.4 0 0 1-2.39-.99v-9.08c0-.77.63-1.4 1.4-1.4h9.08a1.4 1.4 0 0 1 .99 2.39l-3.1 3.1a13.4 13.4 0 0 0 18.81.55 2.2 2.2 0 1 1 3.21 3.03Z" fill="#b8eee9"/>
</svg>
